<svg xmlns="http://www.w3.org/2000/svg" viewBox="0 0 3363.06 2436.08"><defs><style>.cls-1{fill:#fff4e8;}.cls-2{fill:#e9d384;}.cls-3{fill:#9cb9a2;}.cls-4{fill:#aac0c3;}.cls-5{fill:#c68267;}</style></defs><g id="Layer_2" data-name="Layer 2"><g id="Layer_1-2" data-name="Layer 1"><rect class="cls-1" width="3363" height="2436"/><polygon class="cls-2" points="3363 1039.67 3363 2436 1962.24 2436 3363 1039.67"/><polygon class="cls-3" points="3363 0 3363 401.82 1683.56 2436 311.12 2436 1044.76 0 3363 0"/><path class="cls-4" d="M1690.8,0c-182,216-300.66,410.26-377.8,554C874.45,1371.17,935.94,2120.1,515.82,2436H0V1116.55C154,712.51,242.67,331.71,293.43,0Z"/><path class="cls-5" d="M2125.82,2436C2125,2436.19,0,2436,0,2436v-403a4036.26,4036.26,0,0,0,1025-326c262.37-124.15,594.78-316.27,928-608,199.18-174.38,260.81-263.68,459-469,166.56-172.56,395.07-391.31,694.75-630H3363s.12,1217.75,0,1218C2992,1968,2565,2331,2125.82,2436Z"/><polygon class="cls-2" points="451.25 0 0 1410.53 0 0 451.25 0"/></g></g></svg>